<svg width="54" height="55" viewBox="0 0 54 55" fill="none" xmlns="http://www.w3.org/2000/svg">
<circle cx="27" cy="27.2939" r="25" fill="#E24329" stroke="white" stroke-width="4"/>
<path d="M21.102 35.5099C20.058 35.5099 19.128 35.2519 18.312 34.7359C17.496 34.2199 16.854 33.4759 16.386 32.5039C15.93 31.5199 15.702 30.3499 15.702 28.9939C15.702 27.6379 15.93 26.4739 16.386 25.5019C16.854 24.5179 17.496 23.7679 18.312 23.2519C19.128 22.7359 20.058 22.4779 21.102 22.4779C22.146 22.4779 23.076 22.7359 23.892 23.2519C24.708 23.7679 25.344 24.5179 25.8 25.5019C26.268 26.4739 26.502 27.6379 26.502 28.9939C26.502 30.3499 26.268 31.5199 25.8 32.5039C25.344 33.4759 24.708 34.2199 23.892 34.7359C23.076 35.2519 22.146 35.5099 21.102 35.5099ZM21.102 33.0439C21.87 33.0439 22.47 32.7139 22.902 32.0539C23.346 31.3939 23.568 30.3739 23.568 28.9939C23.568 27.6139 23.346 26.5939 22.902 25.9339C22.47 25.2739 21.87 24.9439 21.102 24.9439C20.346 24.9439 19.746 25.2739 19.302 25.9339C18.87 26.5939 18.654 27.6139 18.654 28.9939C18.654 30.3739 18.87 31.3939 19.302 32.0539C19.746 32.7139 20.346 33.0439 21.102 33.0439ZM33.629 27.8239C34.733 28.0039 35.579 28.4179 36.167 29.0659C36.755 29.7019 37.049 30.4939 37.049 31.4419C37.049 32.1739 36.857 32.8519 36.473 33.4759C36.089 34.0879 35.501 34.5799 34.709 34.9519C33.929 35.3239 32.969 35.5099 31.829 35.5099C30.941 35.5099 30.065 35.3959 29.201 35.1679C28.349 34.9279 27.623 34.5919 27.023 34.1599L28.157 31.9279C28.637 32.2879 29.189 32.5699 29.813 32.7739C30.449 32.9659 31.097 33.0619 31.757 33.0619C32.489 33.0619 33.065 32.9239 33.485 32.6479C33.905 32.3599 34.115 31.9579 34.115 31.4419C34.115 30.4099 33.329 29.8939 31.757 29.8939H30.425V27.9679L33.017 25.0339H27.653V22.6939H36.473V24.5839L33.629 27.8239Z" fill="white"/>
</svg>
