<svg width="54" height="55" viewBox="0 0 54 55" fill="none" xmlns="http://www.w3.org/2000/svg">
<circle cx="27" cy="27.2939" r="25" fill="#E24329" stroke="white" stroke-width="4"/>
<path d="M21.102 33.216C20.058 33.216 19.128 32.958 18.312 32.442C17.496 31.926 16.854 31.182 16.386 30.21C15.93 29.226 15.702 28.056 15.702 26.7C15.702 25.344 15.93 24.18 16.386 23.208C16.854 22.224 17.496 21.474 18.312 20.958C19.128 20.442 20.058 20.184 21.102 20.184C22.146 20.184 23.076 20.442 23.892 20.958C24.708 21.474 25.344 22.224 25.8 23.208C26.268 24.18 26.502 25.344 26.502 26.7C26.502 28.056 26.268 29.226 25.8 30.21C25.344 31.182 24.708 31.926 23.892 32.442C23.076 32.958 22.146 33.216 21.102 33.216ZM21.102 30.75C21.87 30.75 22.47 30.42 22.902 29.76C23.346 29.1 23.568 28.08 23.568 26.7C23.568 25.32 23.346 24.3 22.902 23.64C22.47 22.98 21.87 22.65 21.102 22.65C20.346 22.65 19.746 22.98 19.302 23.64C18.87 24.3 18.654 25.32 18.654 26.7C18.654 28.08 18.87 29.1 19.302 29.76C19.746 30.42 20.346 30.75 21.102 30.75ZM37.2273 30.624V33H27.7053V31.11L32.5653 26.52C33.0813 26.028 33.4293 25.608 33.6093 25.26C33.7893 24.9 33.8793 24.546 33.8793 24.198C33.8793 23.694 33.7053 23.31 33.3573 23.046C33.0213 22.77 32.5233 22.632 31.8633 22.632C31.3113 22.632 30.8133 22.74 30.3693 22.956C29.9253 23.16 29.5533 23.472 29.2533 23.892L27.1293 22.524C27.6213 21.792 28.2993 21.222 29.1633 20.814C30.0273 20.394 31.0173 20.184 32.1333 20.184C33.0693 20.184 33.8853 20.34 34.5813 20.652C35.2893 20.952 35.8353 21.384 36.2193 21.948C36.6153 22.5 36.8133 23.154 36.8133 23.91C36.8133 24.594 36.6693 25.236 36.3813 25.836C36.0933 26.436 35.5353 27.12 34.7073 27.888L31.8093 30.624H37.2273Z" fill="white"/>
</svg>
