<svg width="172" height="63" viewBox="0 0 172 63" fill="none" xmlns="http://www.w3.org/2000/svg">
<rect x="1" y="1.29395" width="170" height="60" rx="16" stroke="#203A59" stroke-width="2"/>
<g clip-path="url(#clip0_36_58)">
<path d="M44.1892 32.4583C44.2204 29.9907 45.4895 27.7114 47.552 26.4189C46.245 24.5162 44.1342 23.3531 41.8565 23.2805C39.4602 23.0241 37.1371 24.7421 35.916 24.7421C34.6712 24.7421 32.7911 23.3059 30.7665 23.3484C28.1027 23.4361 25.6796 24.9424 24.3836 27.3162C21.6237 32.1866 23.6823 39.3445 26.326 43.2814C27.6487 45.2092 29.1946 47.3626 31.2174 47.2862C33.1967 47.2025 33.936 45.9997 36.3253 45.9997C38.6924 45.9997 39.3859 47.2862 41.4497 47.2377C43.5737 47.2025 44.9119 45.3013 46.1882 43.3553C47.1385 41.9817 47.8698 40.4635 48.355 38.8571C45.8324 37.7696 44.1921 35.2501 44.1892 32.4583Z" fill="#203A59"/>
<path d="M40.2911 20.6915C41.4492 19.2745 42.0197 17.4531 41.8816 15.6143C40.1123 15.8037 38.478 16.6656 37.3043 18.0282C36.1453 19.3727 35.5582 21.1316 35.6722 22.9175C37.4652 22.9363 39.1676 22.1159 40.2911 20.6915Z" fill="#203A59"/>
</g>
<path d="M64.3942 46.2939L65.3658 43.3089H70.0895L71.0611 46.2939H74.027L69.5142 33.203H65.9474L61.4283 46.2939H64.3942ZM66.0689 41.1483L67.6797 36.1945H67.782L69.3928 41.1483H66.0689ZM75.5515 49.9758H78.2745V44.7215H78.3576C78.7347 45.5397 79.5593 46.4537 81.1445 46.4537C83.3817 46.4537 85.1268 44.6831 85.1268 41.3976C85.1268 38.0226 83.305 36.3479 81.1509 36.3479C79.5082 36.3479 78.7219 37.3259 78.3576 38.1249H78.2362V36.4758H75.5515V49.9758ZM78.217 41.3849C78.217 39.6334 78.9585 38.5148 80.2816 38.5148C81.6303 38.5148 82.3462 39.6846 82.3462 41.3849C82.3462 43.0979 81.6175 44.2868 80.2816 44.2868C78.9712 44.2868 78.217 43.1363 78.217 41.3849ZM86.9421 49.9758H89.6651V44.7215H89.7482C90.1254 45.5397 90.9499 46.4537 92.5352 46.4537C94.7724 46.4537 96.5174 44.6831 96.5174 41.3976C96.5174 38.0226 94.6957 36.3479 92.5415 36.3479C90.8988 36.3479 90.1126 37.3259 89.7482 38.1249H89.6268V36.4758H86.9421V49.9758ZM89.6076 41.3849C89.6076 39.6334 90.3491 38.5148 91.6722 38.5148C93.021 38.5148 93.7369 39.6846 93.7369 41.3849C93.7369 43.0979 93.0082 44.2868 91.6722 44.2868C90.3619 44.2868 89.6076 43.1363 89.6076 41.3849ZM109.651 36.968H112.304C112.266 34.6349 110.348 33.0241 107.433 33.0241C104.563 33.0241 102.46 34.6093 102.473 36.9871C102.467 38.9175 103.828 40.0233 106.04 40.5539L107.465 40.9118C108.891 41.257 109.683 41.6661 109.69 42.5482C109.683 43.507 108.776 44.159 107.369 44.159C105.931 44.159 104.896 43.4942 104.806 42.1839H102.128C102.198 45.0155 104.225 46.4793 107.401 46.4793C110.597 46.4793 112.477 44.9516 112.483 42.5546C112.477 40.3749 110.834 39.218 108.558 38.7066L107.382 38.4253C106.244 38.1633 105.292 37.7414 105.311 36.8018C105.311 35.958 106.059 35.338 107.414 35.338C108.737 35.338 109.549 35.9388 109.651 36.968ZM119.516 36.4758H117.669V34.1235H114.946V36.4758H113.603V38.5212H114.946V43.6349C114.933 45.5589 116.243 46.5113 118.218 46.4282C118.922 46.4026 119.42 46.262 119.695 46.1725L119.267 44.1462C119.132 44.1718 118.845 44.2357 118.589 44.2357C118.046 44.2357 117.669 44.0312 117.669 43.2769V38.5212H119.516V36.4758ZM125.62 46.4857C128.599 46.4857 130.453 44.4466 130.453 41.4232C130.453 38.3806 128.599 36.3479 125.62 36.3479C122.642 36.3479 120.788 38.3806 120.788 41.4232C120.788 44.4466 122.642 46.4857 125.62 46.4857ZM125.633 44.3763C124.259 44.3763 123.556 43.1171 123.556 41.404C123.556 39.691 124.259 38.4253 125.633 38.4253C126.982 38.4253 127.685 39.691 127.685 41.404C127.685 43.1171 126.982 44.3763 125.633 44.3763ZM132.223 46.2939H134.946V40.7393C134.946 39.5312 135.828 38.7002 137.03 38.7002C137.407 38.7002 137.925 38.7641 138.181 38.8472V36.431C137.938 36.3735 137.599 36.3351 137.324 36.3351C136.225 36.3351 135.324 36.9743 134.966 38.1888H134.863V36.4758H132.223V46.2939ZM143.606 46.4857C146.035 46.4857 147.671 45.3032 148.055 43.4814L145.536 43.3153C145.262 44.0631 144.558 44.453 143.651 44.453C142.289 44.453 141.426 43.5518 141.426 42.088V42.0816H148.112V41.3337C148.112 37.9971 146.093 36.3479 143.497 36.3479C140.608 36.3479 138.735 38.3998 138.735 41.4296C138.735 44.5425 140.583 46.4857 143.606 46.4857ZM141.426 40.3941C141.484 39.2755 142.334 38.3806 143.542 38.3806C144.725 38.3806 145.543 39.2243 145.549 40.3941H141.426Z" fill="#203A59"/>
<path d="M68.125 24.2939C70.3409 24.2939 71.5909 22.9161 71.5909 20.6434C71.5909 18.3849 70.3409 17.0212 68.2244 17.0212H65.8807V24.2939H68.125ZM66.7614 23.5127V17.8025H68.1676C69.8722 17.8025 70.7386 18.882 70.7386 20.6434C70.7386 22.4189 69.8722 23.5127 68.0682 23.5127H66.7614ZM75.1705 24.4076C76.6477 24.4076 77.642 23.2854 77.642 21.5951C77.642 19.8905 76.6477 18.7684 75.1705 18.7684C73.6932 18.7684 72.6989 19.8905 72.6989 21.5951C72.6989 23.2854 73.6932 24.4076 75.1705 24.4076ZM75.1705 23.6547C74.0483 23.6547 73.5369 22.6888 73.5369 21.5951C73.5369 20.5013 74.0483 19.5212 75.1705 19.5212C76.2926 19.5212 76.804 20.5013 76.804 21.5951C76.804 22.6888 76.2926 23.6547 75.1705 23.6547ZM79.9716 24.2939H80.7955L81.9886 20.1036H82.0739L83.267 24.2939H84.0909L85.7528 18.8394H84.8722L83.6932 23.0013H83.6364L82.4858 18.8394H81.5909L80.4261 23.0155H80.3693L79.1903 18.8394H78.3097L79.9716 24.2939ZM87.6989 21.0127C87.6989 20.061 88.2884 19.5212 89.0909 19.5212C89.8686 19.5212 90.3409 20.029 90.3409 20.8849V24.2939H91.179V20.828C91.179 19.436 90.4368 18.7684 89.3324 18.7684C88.5085 18.7684 87.9972 19.1377 87.7415 19.6917H87.6705V18.8394H86.8608V24.2939H87.6989V21.0127ZM93.5485 17.0212H92.7104V24.2939H93.5485V17.0212ZM97.2994 24.4076C98.7766 24.4076 99.771 23.2854 99.771 21.5951C99.771 19.8905 98.7766 18.7684 97.2994 18.7684C95.8221 18.7684 94.8278 19.8905 94.8278 21.5951C94.8278 23.2854 95.8221 24.4076 97.2994 24.4076ZM97.2994 23.6547C96.1772 23.6547 95.6658 22.6888 95.6658 21.5951C95.6658 20.5013 96.1772 19.5212 97.2994 19.5212C98.4215 19.5212 98.9329 20.5013 98.9329 21.5951C98.9329 22.6888 98.4215 23.6547 97.2994 23.6547ZM102.655 24.4218C103.607 24.4218 104.104 23.9104 104.275 23.5553H104.317V24.2939H105.155V20.7002C105.155 18.9672 103.834 18.7684 103.138 18.7684C102.314 18.7684 101.377 19.0525 100.951 20.0468L101.746 20.3309C101.931 19.9331 102.368 19.507 103.167 19.507C103.937 19.507 104.317 19.9154 104.317 20.615V20.6434C104.317 21.0482 103.905 21.0127 102.911 21.1405C101.899 21.2719 100.795 21.4956 100.795 22.7456C100.795 23.811 101.618 24.4218 102.655 24.4218ZM102.783 23.6689C102.116 23.6689 101.633 23.3706 101.633 22.7883C101.633 22.1491 102.215 21.9502 102.868 21.865C103.224 21.8224 104.175 21.7229 104.317 21.5525V22.3195C104.317 23.0013 103.778 23.6689 102.783 23.6689ZM108.745 24.4076C109.796 24.4076 110.151 23.7542 110.336 23.4559H110.435V24.2939H111.245V17.0212H110.407V19.7059H110.336C110.151 19.4218 109.824 18.7684 108.759 18.7684C107.381 18.7684 106.429 19.8621 106.429 21.5809C106.429 23.3138 107.381 24.4076 108.745 24.4076ZM108.858 23.6547C107.807 23.6547 107.267 22.7314 107.267 21.5667C107.267 20.4161 107.793 19.5212 108.858 19.5212C109.881 19.5212 110.421 20.3451 110.421 21.5667C110.421 22.8025 109.867 23.6547 108.858 23.6547ZM117.924 24.4076C119.402 24.4076 120.396 23.2854 120.396 21.5951C120.396 19.8905 119.402 18.7684 117.924 18.7684C116.447 18.7684 115.453 19.8905 115.453 21.5951C115.453 23.2854 116.447 24.4076 117.924 24.4076ZM117.924 23.6547C116.802 23.6547 116.291 22.6888 116.291 21.5951C116.291 20.5013 116.802 19.5212 117.924 19.5212C119.047 19.5212 119.558 20.5013 119.558 21.5951C119.558 22.6888 119.047 23.6547 117.924 23.6547ZM122.513 21.0127C122.513 20.061 123.103 19.5212 123.905 19.5212C124.683 19.5212 125.155 20.029 125.155 20.8849V24.2939H125.993V20.828C125.993 19.436 125.251 18.7684 124.147 18.7684C123.323 18.7684 122.812 19.1377 122.556 19.6917H122.485V18.8394H121.675V24.2939H122.513V21.0127ZM132.71 18.8394H131.545V17.5326H130.707V18.8394H129.883V19.5496H130.707V22.9587C130.707 23.9104 131.474 24.365 132.184 24.365C132.496 24.365 132.695 24.3081 132.809 24.2655L132.638 23.5127C132.567 23.5269 132.454 23.5553 132.269 23.5553C131.9 23.5553 131.545 23.4417 131.545 22.7314V19.5496H132.71V18.8394ZM134.925 21.0127C134.925 20.061 135.533 19.5212 136.36 19.5212C137.148 19.5212 137.624 20.0184 137.624 20.8849V24.2939H138.462V20.828C138.462 19.4253 137.717 18.7684 136.602 18.7684C135.742 18.7684 135.252 19.127 134.996 19.6917H134.925V17.0212H134.087V24.2939H134.925V21.0127ZM142.282 24.4076C143.39 24.4076 144.2 23.8536 144.456 23.0297L143.646 22.8025C143.433 23.3706 142.939 23.6547 142.282 23.6547C141.299 23.6547 140.621 23.0191 140.581 21.8508H144.541V21.4956C144.541 19.4644 143.334 18.7684 142.197 18.7684C140.72 18.7684 139.74 19.9331 139.74 21.6093C139.74 23.2854 140.706 24.4076 142.282 24.4076ZM140.581 21.1263C140.638 20.2776 141.238 19.5212 142.197 19.5212C143.106 19.5212 143.689 20.203 143.689 21.1263H140.581Z" fill="#203A59"/>
<defs>
<clipPath id="clip0_36_58">
<rect width="26" height="32" fill="white" transform="translate(23 15.2939)"/>
</clipPath>
</defs>
</svg>
