<svg width="54" height="55" viewBox="0 0 54 55" fill="none" xmlns="http://www.w3.org/2000/svg">
<circle cx="27" cy="27.2939" r="25" fill="#E24329" stroke="white" stroke-width="4"/>
<path d="M23.102 33.216C22.058 33.216 21.128 32.958 20.312 32.442C19.496 31.926 18.854 31.182 18.386 30.21C17.93 29.226 17.702 28.056 17.702 26.7C17.702 25.344 17.93 24.18 18.386 23.208C18.854 22.224 19.496 21.474 20.312 20.958C21.128 20.442 22.058 20.184 23.102 20.184C24.146 20.184 25.076 20.442 25.892 20.958C26.708 21.474 27.344 22.224 27.8 23.208C28.268 24.18 28.502 25.344 28.502 26.7C28.502 28.056 28.268 29.226 27.8 30.21C27.344 31.182 26.708 31.926 25.892 32.442C25.076 32.958 24.146 33.216 23.102 33.216ZM23.102 30.75C23.87 30.75 24.47 30.42 24.902 29.76C25.346 29.1 25.568 28.08 25.568 26.7C25.568 25.32 25.346 24.3 24.902 23.64C24.47 22.98 23.87 22.65 23.102 22.65C22.346 22.65 21.746 22.98 21.302 23.64C20.87 24.3 20.654 25.32 20.654 26.7C20.654 28.08 20.87 29.1 21.302 29.76C21.746 30.42 22.346 30.75 23.102 30.75ZM34.6733 20.4V33H31.7573V22.74H29.2373V20.4H34.6733Z" fill="white"/>
</svg>
