<svg width="172" height="63" viewBox="0 0 172 63" fill="none" xmlns="http://www.w3.org/2000/svg">
<rect x="1" y="1.29395" width="170" height="60" rx="16" stroke="#203A59" stroke-width="2"/>
<path d="M62.8182 37.4346H65.6307C65.2727 34.8458 62.9908 33.0241 60.0312 33.0241C56.5732 33.0241 53.9077 35.517 53.9077 39.7613C53.9077 43.9033 56.4006 46.4729 60.0888 46.4729C63.3935 46.4729 65.7521 44.3827 65.7521 40.9374V39.2883H60.2741V41.3721H63.0866C63.0483 42.9956 61.9425 44.0248 60.1016 44.0248C58.0241 44.0248 56.7138 42.4715 56.7138 39.7357C56.7138 37.0127 58.0753 35.4722 60.076 35.4722C61.5014 35.4722 62.4666 36.2073 62.8182 37.4346ZM72.2161 46.4857C75.1948 46.4857 77.0485 44.4466 77.0485 41.4232C77.0485 38.3806 75.1948 36.3479 72.2161 36.3479C69.2374 36.3479 67.3837 38.3806 67.3837 41.4232C67.3837 44.4466 69.2374 46.4857 72.2161 46.4857ZM72.2289 44.3763C70.8546 44.3763 70.1515 43.1171 70.1515 41.404C70.1515 39.691 70.8546 38.4253 72.2289 38.4253C73.5776 38.4253 74.2807 39.691 74.2807 41.404C74.2807 43.1171 73.5776 44.3763 72.2289 44.3763ZM83.2551 46.4857C86.2338 46.4857 88.0875 44.4466 88.0875 41.4232C88.0875 38.3806 86.2338 36.3479 83.2551 36.3479C80.2765 36.3479 78.4228 38.3806 78.4228 41.4232C78.4228 44.4466 80.2765 46.4857 83.2551 46.4857ZM83.2679 44.3763C81.8936 44.3763 81.1905 43.1171 81.1905 41.404C81.1905 39.691 81.8936 38.4253 83.2679 38.4253C84.6167 38.4253 85.3198 39.691 85.3198 41.404C85.3198 43.1171 84.6167 44.3763 83.2679 44.3763ZM94.2814 50.1803C97.0875 50.1803 99.0819 48.9019 99.0819 46.3898V36.4758H96.378V38.1249H96.2757C95.9114 37.3259 95.1124 36.3479 93.4696 36.3479C91.3155 36.3479 89.4938 38.0226 89.4938 41.3657C89.4938 44.632 91.2644 46.1533 93.476 46.1533C95.0421 46.1533 95.9178 45.3671 96.2757 44.5553H96.3908V46.3515C96.3908 47.7002 95.5279 48.2243 94.3453 48.2243C93.1436 48.2243 92.5364 47.7002 92.3127 47.1057L89.7942 47.4445C90.1202 48.9914 91.6351 50.1803 94.2814 50.1803ZM94.339 44.1079C93.003 44.1079 92.2743 43.0468 92.2743 41.3529C92.2743 39.6846 92.9902 38.5148 94.339 38.5148C95.6621 38.5148 96.4036 39.6334 96.4036 41.3529C96.4036 43.0851 95.6493 44.1079 94.339 44.1079ZM103.972 33.203H101.249V46.2939H103.972V33.203ZM110.627 46.4857C113.056 46.4857 114.693 45.3032 115.076 43.4814L112.558 43.3153C112.283 44.0631 111.58 44.453 110.672 44.453C109.311 44.453 108.448 43.5518 108.448 42.088V42.0816H115.134V41.3337C115.134 37.9971 113.114 36.3479 110.519 36.3479C107.63 36.3479 105.757 38.3998 105.757 41.4296C105.757 44.5425 107.604 46.4857 110.627 46.4857ZM108.448 40.3941C108.505 39.2755 109.355 38.3806 110.564 38.3806C111.746 38.3806 112.564 39.2243 112.571 40.3941H108.448ZM121.128 46.2939H123.896V42.0496H126.222C129.233 42.0496 130.985 40.2535 130.985 37.6391C130.985 35.0376 129.265 33.203 126.293 33.203H121.128V46.2939ZM123.896 39.8316V35.4658H125.762C127.36 35.4658 128.134 36.3351 128.134 37.6391C128.134 38.9367 127.36 39.8316 125.775 39.8316H123.896ZM135.454 33.203H132.731V46.2939H135.454V33.203ZM140.435 46.4793C141.886 46.4793 142.826 45.8465 143.305 44.9324H143.382V46.2939H145.964V39.6718C145.964 37.3323 143.983 36.3479 141.797 36.3479C139.444 36.3479 137.898 37.4729 137.52 39.2627L140.039 39.4672C140.224 38.8153 140.806 38.3358 141.784 38.3358C142.711 38.3358 143.241 38.8025 143.241 39.6079V39.6462C143.241 40.279 142.57 40.3621 140.863 40.5283C138.92 40.7073 137.175 41.3593 137.175 43.5518C137.175 45.4949 138.562 46.4793 140.435 46.4793ZM141.215 44.6001C140.378 44.6001 139.777 44.2101 139.777 43.4623C139.777 42.6952 140.41 42.3181 141.368 42.1839C141.963 42.1008 142.934 41.9601 143.26 41.7428V42.7847C143.26 43.8138 142.41 44.6001 141.215 44.6001ZM149.406 49.9758C151.433 49.9758 152.507 48.9403 153.063 47.355L156.879 36.4885L153.996 36.4758L151.944 43.686H151.842L149.809 36.4758H146.945L150.468 46.5752L150.308 46.9907C149.95 47.9111 149.266 47.9559 148.307 47.6618L147.693 49.6945C148.083 49.8607 148.716 49.9758 149.406 49.9758Z" fill="#203A59"/>
<path d="M62.8523 19.2939H63.7614C63.4915 17.8877 62.3125 16.9218 60.7784 16.9218C58.9141 16.9218 57.5966 18.3564 57.5966 20.6576C57.5966 22.9587 58.9034 24.3934 60.8352 24.3934C62.5682 24.3934 63.804 23.2393 63.804 21.4388V20.6576H61.0341V21.4388H62.9517C62.9268 22.7456 62.0675 23.5695 60.8352 23.5695C59.4858 23.5695 58.4489 22.5468 58.4489 20.6576C58.4489 18.7684 59.4858 17.7456 60.7784 17.7456C61.8295 17.7456 62.5433 18.3387 62.8523 19.2939ZM67.4856 24.4076C68.5936 24.4076 69.4032 23.8536 69.6589 23.0297L68.8493 22.8025C68.6362 23.3706 68.1426 23.6547 67.4856 23.6547C66.502 23.6547 65.8237 23.0191 65.7846 21.8508H69.7441V21.4956C69.7441 19.4644 68.5368 18.7684 67.4004 18.7684C65.9231 18.7684 64.943 19.9331 64.943 21.6093C64.943 23.2854 65.9089 24.4076 67.4856 24.4076ZM65.7846 21.1263C65.8414 20.2776 66.4416 19.5212 67.4004 19.5212C68.3095 19.5212 68.8919 20.203 68.8919 21.1263H65.7846ZM73.3912 18.8394H72.2264V17.5326H71.3883V18.8394H70.5645V19.5496H71.3883V22.9587C71.3883 23.9104 72.1554 24.365 72.8656 24.365C73.1781 24.365 73.377 24.3081 73.4906 24.2655L73.3201 23.5127C73.2491 23.5269 73.1355 23.5553 72.9508 23.5553C72.5815 23.5553 72.2264 23.4417 72.2264 22.7314V19.5496H73.3912V18.8394ZM77.4643 24.2939H78.3024V18.8394H77.4643V24.2939ZM77.8904 17.9303C78.2172 17.9303 78.487 17.6746 78.487 17.3621C78.487 17.0496 78.2172 16.7939 77.8904 16.7939C77.5637 16.7939 77.2939 17.0496 77.2939 17.3621C77.2939 17.6746 77.5637 17.9303 77.8904 17.9303ZM82.2095 18.8394H81.0447V17.5326H80.2067V18.8394H79.3828V19.5496H80.2067V22.9587C80.2067 23.9104 80.9737 24.365 81.6839 24.365C81.9964 24.365 82.1953 24.3081 82.3089 24.2655L82.1385 23.5127C82.0675 23.5269 81.9538 23.5553 81.7692 23.5553C81.3999 23.5553 81.0447 23.4417 81.0447 22.7314V19.5496H82.2095V18.8394ZM88.4986 24.4076C89.9759 24.4076 90.9702 23.2854 90.9702 21.5951C90.9702 19.8905 89.9759 18.7684 88.4986 18.7684C87.0213 18.7684 86.027 19.8905 86.027 21.5951C86.027 23.2854 87.0213 24.4076 88.4986 24.4076ZM88.4986 23.6547C87.3764 23.6547 86.8651 22.6888 86.8651 21.5951C86.8651 20.5013 87.3764 19.5212 88.4986 19.5212C89.6207 19.5212 90.1321 20.5013 90.1321 21.5951C90.1321 22.6888 89.6207 23.6547 88.4986 23.6547ZM93.0875 21.0127C93.0875 20.061 93.677 19.5212 94.4796 19.5212C95.2573 19.5212 95.7296 20.029 95.7296 20.8849V24.2939H96.5676V20.828C96.5676 19.436 95.8255 18.7684 94.7211 18.7684C93.8972 18.7684 93.3858 19.1377 93.1301 19.6917H93.0591V18.8394H92.2495V24.2939H93.0875V21.0127Z" fill="#203A59"/>
<g clip-path="url(#clip0_36_74)">
<path d="M16.5706 15.7932C16.1694 16.2745 15.9669 16.8908 16.0044 17.5163V44.7409C15.9669 45.3664 16.1694 45.9826 16.5706 46.464L16.6567 46.5501L31.9059 31.3132V30.9563L16.6567 15.707L16.5706 15.7932Z" fill="url(#paint0_linear_36_74)"/>
<path d="M36.9522 36.3962L31.906 31.3131V30.9562L36.9522 25.8608L37.0629 25.9224L43.106 29.3562C44.8291 30.3285 44.8291 31.9285 43.106 32.9131L37.0875 36.3347L36.9522 36.3962Z" fill="url(#paint1_linear_36_74)"/>
<path d="M37.0998 36.3228L31.9059 31.1289L16.5706 46.4643C17.2951 47.1012 18.3705 47.1323 19.1306 46.5381L37.1121 36.3228" fill="url(#paint2_linear_36_74)"/>
<path d="M37.0999 25.9349L19.1183 15.7195C18.3583 15.1254 17.2829 15.1564 16.5583 15.7934L31.906 31.1287L37.0999 25.9349Z" fill="url(#paint3_linear_36_74)"/>
</g>
<defs>
<linearGradient id="paint0_linear_36_74" x1="25.708" y1="17.2332" x2="12.6356" y2="30.3056" gradientUnits="userSpaceOnUse">
<stop stop-color="#00A0FF"/>
<stop offset="0.01" stop-color="#00A1FF"/>
<stop offset="0.26" stop-color="#00BEFF"/>
<stop offset="0.51" stop-color="#00D2FF"/>
<stop offset="0.76" stop-color="#00DFFF"/>
<stop offset="1" stop-color="#00E3FF"/>
</linearGradient>
<linearGradient id="paint1_linear_36_74" x1="45.3583" y1="31.1285" x2="15.586" y2="31.1285" gradientUnits="userSpaceOnUse">
<stop stop-color="#FFE000"/>
<stop offset="0.41" stop-color="#FFBD00"/>
<stop offset="0.78" stop-color="#FFA500"/>
<stop offset="1" stop-color="#FF9C00"/>
</linearGradient>
<linearGradient id="paint2_linear_36_74" x1="34.2813" y1="36.0236" x2="11.9497" y2="58.3454" gradientUnits="userSpaceOnUse">
<stop stop-color="#FF3A44"/>
<stop offset="1" stop-color="#C31162"/>
</linearGradient>
<linearGradient id="paint3_linear_36_74" x1="12.706" y1="13.4204" x2="22.6737" y2="23.3881" gradientUnits="userSpaceOnUse">
<stop stop-color="#32A071"/>
<stop offset="0.07" stop-color="#2DA771"/>
<stop offset="0.48" stop-color="#15CF74"/>
<stop offset="0.8" stop-color="#06E775"/>
<stop offset="1" stop-color="#00F076"/>
</linearGradient>
<clipPath id="clip0_36_74">
<rect width="29" height="32" fill="white" transform="translate(16 15.2939)"/>
</clipPath>
</defs>
</svg>
