<svg width="50" height="51" viewBox="0 0 50 51" fill="none" xmlns="http://www.w3.org/2000/svg">
<path d="M3.82475e-06 6.54394C3.96966e-06 4.88634 0.658486 3.29663 1.83059 2.12453C3.00269 0.952423 4.5924 0.293941 6.25 0.293941L43.75 0.293945C45.4076 0.293945 46.9973 0.952427 48.1694 2.12453C49.3415 3.29663 50 4.88634 50 6.54395L50 44.0439C50 45.7015 49.3415 47.2913 48.1694 48.4634C46.9973 49.6355 45.4076 50.2939 43.75 50.2939L6.25 50.2939C4.5924 50.2939 3.00269 49.6355 1.83059 48.4634C0.658482 47.2913 4.0148e-07 45.7015 5.46392e-07 44.0439L3.82475e-06 6.54394ZM14.0625 26.8564L32.1656 26.8564L25.4563 33.5627C25.1629 33.8561 24.998 34.254 24.998 34.6689C24.998 35.0839 25.1629 35.4818 25.4563 35.7752C25.7496 36.0686 26.1476 36.2334 26.5625 36.2334C26.9774 36.2334 27.3754 36.0686 27.6688 35.7752L37.0438 26.4002C37.1893 26.2551 37.3047 26.0826 37.3835 25.8928C37.4622 25.703 37.5028 25.4995 37.5028 25.2939C37.5028 25.0884 37.4623 24.8849 37.3835 24.6951C37.3047 24.5053 37.1893 24.3328 37.0438 24.1877L27.6688 14.8127C27.3754 14.5193 26.9774 14.3545 26.5625 14.3545C26.1476 14.3545 25.7496 14.5193 25.4563 14.8127C25.1629 15.1061 24.998 15.504 24.998 15.9189C24.998 16.3339 25.1629 16.7318 25.4563 17.0252L32.1656 23.7314L14.0625 23.7314C13.6481 23.7314 13.2507 23.8961 12.9576 24.1891C12.6646 24.4821 12.5 24.8795 12.5 25.2939C12.5 25.7083 12.6646 26.1058 12.9576 26.3988C13.2507 26.6918 13.6481 26.8564 14.0625 26.8564Z" fill="#29DBCC"/>
</svg>
